<?xml version="1.0" encoding="UTF-8"?>
<svg id="Layer_1" data-name="Layer 1" xmlns="http://www.w3.org/2000/svg" viewBox="0 0 468.42 224.8">
  <defs>
    <style>
      .cls-1 {
        opacity: .36;
      }

      .cls-1, .cls-2 {
        fill: #fff;
      }
    </style>
  </defs>
  <g>
    <path class="cls-2" d="M157.11,84.04l6.93,23.53c11.97-1.1,33.41-10.83,35.96,8,2.69,19.83-9,55.72-21.5,71.33-8.09,10.1-22.63,12.44-35.04,13.96-19.63,2.4-73.39.94-89.31-10.44-8.34-5.96-16.21-32.47-14.14-41.95,2.9-13.34,21.78-6.17,23.94-9.62l1.15-24.86c-10.38-.22-28.39-1.04-27.05-15.5.68-7.34,13.85-15.09,19.83-18.7,1.97-12.96-5.73-26.53,6.19-36.32,7.06-5.8,39.6-19.41,48.63-20.37,18.62-1.98,21.65,18.11,31.4,29.43,8.3.37,20.03-2.9,27.32,1.63,14.86,9.22-3.72,26.86-14.31,29.89ZM120.81,34.28c-3.36-2.85-15.02,1.25-19.24,2.69-5.76,1.97-28.13,11.5-31.75,14.98-5.38,5.16-.32,15.32-1.73,22.04,1.67,1.63,14.54-5.99,17.32-7.18,15.05-6.43,30.65-10.58,46.68-13.83-3.4-4.08-7.78-15.73-11.28-18.69ZM146.89,62.28c-27.7,1.85-62.31,13.69-86.1,27.9-2.43,1.45-12.82,7.85-12.64,10.32.17,2.24,14.99,3.97,17.23,3.3,1.7-.51,6.12-5.95,8.39-7.65,15.32-11.41,41.66-21.63,60.78-22.21,9.94-.3,16.44,4.41,25.04-1.96,1.34-.99,7.53-7.41,7.48-8.51-.13-2.58-17.47-1.38-20.18-1.2ZM74.09,142.98h15.5c13.79,0,32.82-13.54,44.83-20.17,2.94-1.62,18.44-8.58,19.21-9.82,1.62-2.57-6.23-23.59-7.15-28.07-20.64-1.56-39.63,3.39-57.41,13.54-2.7,1.54-9.8,5.49-11.51,7.49-4.58,5.35-1.83,29.02-3.47,37.03ZM188.09,138.98c.9-4.61,3.58-19.57,1.51-23.01-1.85-3.09-12.4-.44-15.72.31-29.42,6.65-54.37,34.38-84.26,36.74-13.28,1.05-26.33-1.63-39.54-2.04-.28,5.51,1.53,10.8,3,16,1.07,3.78,2.06,7.54,4,11,3.94,7.02,16.93,9.26,24.79,10.71,22.92,4.23,48.4,4.49,71.22-.2,3.45-.71,12.85-2.67,15.25-4.48,3.54-2.66,10.77-18.29,12.74-23.03,2.98-7.21,5.49-14.29,7-22Z"/>
    <path class="cls-2" d="M188.09,138.98c-1.51,7.71-4.02,14.79-7,22-21.81,6.01-43.03,14.97-65.64,17.86-54.23,6.92-58.36-.86-58.36-.86-1.94-3.46-2.93-7.22-4-11,20.49,2.68,39.96,2.1,60.19-2.31,25.89-5.66,49.06-19.76,74.81-25.69Z"/>
    <path class="cls-2" d="M120.39,102.27c7.08-8.38,19.88,5.05,11.22,12.74-8.1,7.19-17.55-5.24-11.22-12.74Z"/>
  </g>
  <g>
    <path class="cls-2" d="M217.98,114.41l9.61-11.57c4.51,3.63,10.19,6.17,14.9,6.17,5.1,0,7.25-1.67,7.25-4.51,0-3.04-3.23-4.02-8.62-6.17l-7.94-3.33c-6.86-2.74-12.84-8.53-12.84-17.74,0-10.88,9.8-19.8,23.72-19.8,7.25,0,15.29,2.74,21.17,8.53l-8.43,10.58c-4.31-3.04-8.04-4.61-12.74-4.61-4.12,0-6.66,1.47-6.66,4.31,0,3.04,3.63,4.12,9.41,6.37l7.74,3.04c7.94,3.14,12.45,8.62,12.45,17.45,0,10.78-9.02,20.38-24.89,20.38-8.04,0-17.25-2.94-24.11-9.11Z"/>
    <path class="cls-2" d="M275.21,58.64h16.86v23.72h19.01v-23.72h16.86v63.7h-16.86v-25.29h-19.01v25.29h-16.86v-63.7Z"/>
    <path class="cls-2" d="M381.24,58.64h23.33c13.92,0,25.87,5.1,25.87,21.17s-12.15,22.35-25.48,22.35h-6.86v20.19h-16.86v-63.7ZM404.18,88.83c6.66,0,9.8-3.33,9.8-9.02s-3.72-7.84-10.19-7.84h-5.68v16.86h6.08Z"/>
    <path class="cls-2" d="M217.35,176.02l6.09-7.28c3.34,2.91,7.67,4.9,11.53,4.9,4.43,0,6.6-1.74,6.6-4.53,0-2.96-2.67-3.9-6.77-5.59l-6.1-2.6c-4.86-1.98-9.47-5.97-9.47-12.79,0-7.78,6.95-13.99,16.72-13.99,5.41,0,11.06,2.13,15.1,6.15l-5.36,6.69c-3.09-2.37-6.03-3.68-9.74-3.68s-5.99,1.52-5.99,4.21c0,2.88,3.07,3.92,7.17,5.55l5.98,2.42c5.73,2.32,9.31,6.13,9.31,12.77,0,7.79-6.5,14.55-17.68,14.55-6.11,0-12.6-2.31-17.38-6.79Z"/>
    <path class="cls-2" d="M257.51,168.95v-14.43h-4.88v-7.9l5.47-.41,1.24-9.49h8.75v9.49h8.56v8.31h-8.56v14.3c0,4.05,1.84,5.67,4.62,5.67,1.18,0,2.46-.34,3.4-.68l1.67,7.69c-1.9.6-4.47,1.3-7.94,1.3-8.83,0-12.34-5.58-12.34-13.85Z"/>
    <path class="cls-2" d="M282.01,172.03c0-7.53,5.99-11.6,20.12-13.09-.21-3.12-1.77-5.17-5.65-5.17-3,0-5.99,1.26-9.45,3.23l-3.76-6.95c4.53-2.77,9.64-4.7,15.26-4.7,9.13,0,14.19,5.22,14.19,16.16v20.42h-8.64l-.76-3.66h-.26c-3.01,2.64-6.38,4.52-10.39,4.52-6.52,0-10.65-4.75-10.65-10.77ZM302.12,171.56v-6.24c-7.53,1.02-9.98,3.17-9.98,5.87,0,2.3,1.58,3.43,4.1,3.43s4-1.19,5.88-3.06Z"/>
    <path class="cls-2" d="M320.29,168.95v-14.43h-4.88v-7.9l5.47-.41,1.24-9.49h8.75v9.49h8.56v8.31h-8.56v14.3c0,4.05,1.84,5.67,4.62,5.67,1.18,0,2.46-.34,3.4-.68l1.67,7.69c-1.9.6-4.47,1.3-7.94,1.3-8.83,0-12.34-5.58-12.34-13.85Z"/>
    <path class="cls-2" d="M344.65,168.39v-22.18h10.58v20.82c0,5.14,1.38,6.75,4.44,6.75,2.66,0,4.29-1.12,6.35-3.93v-23.64h10.58v35.72h-8.64l-.76-4.96h-.26c-2.98,3.56-6.34,5.82-11.22,5.82-7.77,0-11.08-5.48-11.08-14.41Z"/>
    <path class="cls-2" d="M379.85,177.81l4.76-6.59c3.24,2.45,6.23,3.75,9.22,3.75,3.15,0,4.51-1.2,4.51-3.07,0-2.35-3.54-3.42-7.22-4.86-4.38-1.69-9.45-4.6-9.45-10.5,0-6.65,5.41-11.18,13.65-11.18,5.47,0,9.55,2.21,12.59,4.52l-4.74,6.36c-2.54-1.85-5.05-3.05-7.52-3.05-2.73,0-4.08,1.07-4.08,2.85,0,2.28,3.35,3.15,7.05,4.5,4.52,1.67,9.62,4.22,9.62,10.75s-5.1,11.52-14.67,11.52c-4.71,0-10.1-2.04-13.72-4.99Z"/>
  </g>
  <g>
    <path class="cls-2" d="M361.53,56.47c3.03,0,5.48,2.45,5.48,5.48v53.7c0,3.03-2.45,5.48-5.48,5.48h-12.83c-3.03,0-5.48-2.45-5.48-5.48v-53.7c0-3.03,2.45-5.48,5.48-5.48h12.83M361.53,53h-12.83c-4.94,0-8.96,4.02-8.96,8.96v53.7c0,4.94,4.02,8.96,8.96,8.96h12.83c4.94,0,8.96-4.02,8.96-8.96v-53.7c0-4.94-4.02-8.96-8.96-8.96h0Z"/>
    <g>
      <circle class="cls-1" cx="355" cy="108.44" r="6.23"/>
      <path class="cls-2" d="M355,103.94c2.47,0,4.5,2.02,4.5,4.5h0c0,2.47-2.02,4.5-4.5,4.5s-4.5-2.02-4.5-4.5h0c0-2.47,2.02-4.5,4.5-4.5M355,100.46c-4.4,0-7.97,3.58-7.97,7.97s3.58,7.97,7.97,7.97,7.97-3.58,7.97-7.97-3.58-7.97-7.97-7.97h0Z"/>
    </g>
    <g>
      <circle class="cls-1" cx="355" cy="87.86" r="6.23"/>
      <path class="cls-2" d="M355,83.36c2.47,0,4.5,2.02,4.5,4.5h0c0,2.47-2.02,4.5-4.5,4.5s-4.5-2.02-4.5-4.5h0c0-2.47,2.02-4.5,4.5-4.5M355,79.88c-4.4,0-7.97,3.58-7.97,7.97s3.58,7.97,7.97,7.97,7.97-3.58,7.97-7.97-3.58-7.97-7.97-7.97h0Z"/>
    </g>
    <g>
      <circle class="cls-1" cx="355" cy="67.89" r="6.23"/>
      <path class="cls-2" d="M355,63.4c2.47,0,4.5,2.02,4.5,4.5s-2.02,4.5-4.5,4.5-4.5-2.02-4.5-4.5,2.02-4.5,4.5-4.5M355,59.92c-4.4,0-7.97,3.58-7.97,7.97s3.58,7.97,7.97,7.97,7.97-3.58,7.97-7.97-3.58-7.97-7.97-7.97h0Z"/>
    </g>
  </g>
</svg>